<mxfile host="app.diagrams.net" modified="2021-05-19T10:39:49.321Z" agent="5.0 (Macintosh; Intel Mac OS X 10_15_7) AppleWebKit/605.1.15 (KHTML, like Gecko) Version/14.1 Safari/605.1.15" etag="hfaivg6dfoq_uNNJSg8b" version="14.6.13" type="github">
  <diagram id="2uamDSMp3M37Ztlf-tgj" name="Page-1">
    <mxGraphModel dx="1138" dy="1933" grid="1" gridSize="10" guides="1" tooltips="1" connect="1" arrows="1" fold="1" page="1" pageScale="1" pageWidth="827" pageHeight="1169" math="0" shadow="0">
      <root>
        <mxCell id="0" />
        <mxCell id="1" parent="0" />
        <mxCell id="zWcjs0OMuB9KEEBCAnvX-1" value="Root" style="swimlane;fontStyle=1;align=center;verticalAlign=top;childLayout=stackLayout;horizontal=1;startSize=26;horizontalStack=0;resizeParent=1;resizeParentMax=0;resizeLast=0;collapsible=1;marginBottom=0;" parent="1" vertex="1">
          <mxGeometry x="20" y="160" width="310" height="244" as="geometry">
            <mxRectangle x="20" y="160" width="60" height="26" as="alternateBounds" />
          </mxGeometry>
        </mxCell>
        <mxCell id="zWcjs0OMuB9KEEBCAnvX-6" value="+ mTimer" style="text;strokeColor=none;fillColor=none;align=left;verticalAlign=top;spacingLeft=4;spacingRight=4;overflow=hidden;rotatable=0;points=[[0,0.5],[1,0.5]];portConstraint=eastwest;" parent="zWcjs0OMuB9KEEBCAnvX-1" vertex="1">
          <mxGeometry y="26" width="310" height="28" as="geometry" />
        </mxCell>
        <mxCell id="zWcjs0OMuB9KEEBCAnvX-2" value="+ mRenderers: std::vector&lt;RenderSystem*&gt;" style="text;strokeColor=none;fillColor=none;align=left;verticalAlign=top;spacingLeft=4;spacingRight=4;overflow=hidden;rotatable=0;points=[[0,0.5],[1,0.5]];portConstraint=eastwest;" parent="zWcjs0OMuB9KEEBCAnvX-1" vertex="1">
          <mxGeometry y="54" width="310" height="26" as="geometry" />
        </mxCell>
        <mxCell id="zWcjs0OMuB9KEEBCAnvX-9" value="+ mMeshManager&#xa;" style="text;strokeColor=none;fillColor=none;align=left;verticalAlign=top;spacingLeft=4;spacingRight=4;overflow=hidden;rotatable=0;points=[[0,0.5],[1,0.5]];portConstraint=eastwest;" parent="zWcjs0OMuB9KEEBCAnvX-1" vertex="1">
          <mxGeometry y="80" width="310" height="26" as="geometry" />
        </mxCell>
        <mxCell id="zWcjs0OMuB9KEEBCAnvX-12" value="+ mSkeletonManager&#xa;" style="text;strokeColor=none;fillColor=none;align=left;verticalAlign=top;spacingLeft=4;spacingRight=4;overflow=hidden;rotatable=0;points=[[0,0.5],[1,0.5]];portConstraint=eastwest;" parent="zWcjs0OMuB9KEEBCAnvX-1" vertex="1">
          <mxGeometry y="106" width="310" height="26" as="geometry" />
        </mxCell>
        <mxCell id="zWcjs0OMuB9KEEBCAnvX-5" value="+ mMaterialManager&#xa;" style="text;strokeColor=none;fillColor=none;align=left;verticalAlign=top;spacingLeft=4;spacingRight=4;overflow=hidden;rotatable=0;points=[[0,0.5],[1,0.5]];portConstraint=eastwest;" parent="zWcjs0OMuB9KEEBCAnvX-1" vertex="1">
          <mxGeometry y="132" width="310" height="26" as="geometry" />
        </mxCell>
        <mxCell id="zWcjs0OMuB9KEEBCAnvX-8" value="+ mResourceGroupManager&#xa;" style="text;strokeColor=none;fillColor=none;align=left;verticalAlign=top;spacingLeft=4;spacingRight=4;overflow=hidden;rotatable=0;points=[[0,0.5],[1,0.5]];portConstraint=eastwest;" parent="zWcjs0OMuB9KEEBCAnvX-1" vertex="1">
          <mxGeometry y="158" width="310" height="26" as="geometry" />
        </mxCell>
        <mxCell id="zWcjs0OMuB9KEEBCAnvX-10" value="+ mSceneManagerStack: std::deque&lt;SceneManager*&gt;&#xa;" style="text;strokeColor=none;fillColor=none;align=left;verticalAlign=top;spacingLeft=4;spacingRight=4;overflow=hidden;rotatable=0;points=[[0,0.5],[1,0.5]];portConstraint=eastwest;" parent="zWcjs0OMuB9KEEBCAnvX-1" vertex="1">
          <mxGeometry y="184" width="310" height="26" as="geometry" />
        </mxCell>
        <mxCell id="zWcjs0OMuB9KEEBCAnvX-3" value="" style="line;strokeWidth=1;fillColor=none;align=left;verticalAlign=middle;spacingTop=-1;spacingLeft=3;spacingRight=3;rotatable=0;labelPosition=right;points=[];portConstraint=eastwest;" parent="zWcjs0OMuB9KEEBCAnvX-1" vertex="1">
          <mxGeometry y="210" width="310" height="8" as="geometry" />
        </mxCell>
        <mxCell id="zWcjs0OMuB9KEEBCAnvX-4" value="+ getTextureManager(void): TextureManager*" style="text;strokeColor=none;fillColor=none;align=left;verticalAlign=top;spacingLeft=4;spacingRight=4;overflow=hidden;rotatable=0;points=[[0,0.5],[1,0.5]];portConstraint=eastwest;" parent="zWcjs0OMuB9KEEBCAnvX-1" vertex="1">
          <mxGeometry y="218" width="310" height="26" as="geometry" />
        </mxCell>
        <mxCell id="zWcjs0OMuB9KEEBCAnvX-20" value="*" style="endArrow=open;html=1;endSize=12;startArrow=diamondThin;startSize=14;startFill=1;edgeStyle=orthogonalEdgeStyle;align=left;verticalAlign=bottom;entryX=0;entryY=0.5;entryDx=0;entryDy=0;" parent="1" source="zWcjs0OMuB9KEEBCAnvX-2" target="L6r7v4rmBGlz0XZG1nLP-13" edge="1">
          <mxGeometry x="-1" y="3" relative="1" as="geometry">
            <mxPoint x="320" y="430" as="sourcePoint" />
            <mxPoint x="450" y="69" as="targetPoint" />
          </mxGeometry>
        </mxCell>
        <mxCell id="L6r7v4rmBGlz0XZG1nLP-1" value="MeshManager" style="swimlane;fontStyle=1;align=center;verticalAlign=top;childLayout=stackLayout;horizontal=1;startSize=26;horizontalStack=0;resizeParent=1;resizeParentMax=0;resizeLast=0;collapsible=1;marginBottom=0;" parent="1" vertex="1">
          <mxGeometry x="720" y="60" width="160" height="86" as="geometry" />
        </mxCell>
        <mxCell id="L6r7v4rmBGlz0XZG1nLP-2" value="+ field: type" style="text;strokeColor=none;fillColor=none;align=left;verticalAlign=top;spacingLeft=4;spacingRight=4;overflow=hidden;rotatable=0;points=[[0,0.5],[1,0.5]];portConstraint=eastwest;" parent="L6r7v4rmBGlz0XZG1nLP-1" vertex="1">
          <mxGeometry y="26" width="160" height="26" as="geometry" />
        </mxCell>
        <mxCell id="L6r7v4rmBGlz0XZG1nLP-3" value="" style="line;strokeWidth=1;fillColor=none;align=left;verticalAlign=middle;spacingTop=-1;spacingLeft=3;spacingRight=3;rotatable=0;labelPosition=right;points=[];portConstraint=eastwest;" parent="L6r7v4rmBGlz0XZG1nLP-1" vertex="1">
          <mxGeometry y="52" width="160" height="8" as="geometry" />
        </mxCell>
        <mxCell id="L6r7v4rmBGlz0XZG1nLP-4" value="+ method(type): type" style="text;strokeColor=none;fillColor=none;align=left;verticalAlign=top;spacingLeft=4;spacingRight=4;overflow=hidden;rotatable=0;points=[[0,0.5],[1,0.5]];portConstraint=eastwest;" parent="L6r7v4rmBGlz0XZG1nLP-1" vertex="1">
          <mxGeometry y="60" width="160" height="26" as="geometry" />
        </mxCell>
        <mxCell id="L6r7v4rmBGlz0XZG1nLP-5" value="1" style="endArrow=open;html=1;endSize=12;startArrow=diamondThin;startSize=14;startFill=1;edgeStyle=orthogonalEdgeStyle;align=left;verticalAlign=bottom;exitX=1;exitY=0.5;exitDx=0;exitDy=0;" parent="1" source="zWcjs0OMuB9KEEBCAnvX-9" target="L6r7v4rmBGlz0XZG1nLP-1" edge="1">
          <mxGeometry x="-1" y="3" relative="1" as="geometry">
            <mxPoint x="360" y="330" as="sourcePoint" />
            <mxPoint x="520" y="330" as="targetPoint" />
          </mxGeometry>
        </mxCell>
        <mxCell id="L6r7v4rmBGlz0XZG1nLP-6" value="MaterialManager" style="swimlane;fontStyle=1;align=center;verticalAlign=top;childLayout=stackLayout;horizontal=1;startSize=26;horizontalStack=0;resizeParent=1;resizeParentMax=0;resizeLast=0;collapsible=1;marginBottom=0;" parent="1" vertex="1">
          <mxGeometry x="610" y="380" width="160" height="86" as="geometry" />
        </mxCell>
        <mxCell id="L6r7v4rmBGlz0XZG1nLP-7" value="+ field: type" style="text;strokeColor=none;fillColor=none;align=left;verticalAlign=top;spacingLeft=4;spacingRight=4;overflow=hidden;rotatable=0;points=[[0,0.5],[1,0.5]];portConstraint=eastwest;" parent="L6r7v4rmBGlz0XZG1nLP-6" vertex="1">
          <mxGeometry y="26" width="160" height="26" as="geometry" />
        </mxCell>
        <mxCell id="L6r7v4rmBGlz0XZG1nLP-8" value="" style="line;strokeWidth=1;fillColor=none;align=left;verticalAlign=middle;spacingTop=-1;spacingLeft=3;spacingRight=3;rotatable=0;labelPosition=right;points=[];portConstraint=eastwest;" parent="L6r7v4rmBGlz0XZG1nLP-6" vertex="1">
          <mxGeometry y="52" width="160" height="8" as="geometry" />
        </mxCell>
        <mxCell id="L6r7v4rmBGlz0XZG1nLP-9" value="+ method(type): type" style="text;strokeColor=none;fillColor=none;align=left;verticalAlign=top;spacingLeft=4;spacingRight=4;overflow=hidden;rotatable=0;points=[[0,0.5],[1,0.5]];portConstraint=eastwest;" parent="L6r7v4rmBGlz0XZG1nLP-6" vertex="1">
          <mxGeometry y="60" width="160" height="26" as="geometry" />
        </mxCell>
        <mxCell id="L6r7v4rmBGlz0XZG1nLP-10" value="1" style="endArrow=open;html=1;endSize=12;startArrow=diamondThin;startSize=14;startFill=1;edgeStyle=orthogonalEdgeStyle;align=left;verticalAlign=bottom;exitX=1;exitY=0.5;exitDx=0;exitDy=0;entryX=0;entryY=0.5;entryDx=0;entryDy=0;" parent="1" source="zWcjs0OMuB9KEEBCAnvX-5" target="L6r7v4rmBGlz0XZG1nLP-7" edge="1">
          <mxGeometry x="-1" y="3" relative="1" as="geometry">
            <mxPoint x="340" y="263" as="sourcePoint" />
            <mxPoint x="470" y="319" as="targetPoint" />
          </mxGeometry>
        </mxCell>
        <mxCell id="L6r7v4rmBGlz0XZG1nLP-12" value="RenderSystem" style="swimlane;fontStyle=1;align=center;verticalAlign=top;childLayout=stackLayout;horizontal=1;startSize=26;horizontalStack=0;resizeParent=1;resizeParentMax=0;resizeLast=0;collapsible=1;marginBottom=0;" parent="1" vertex="1">
          <mxGeometry x="480" y="20" width="160" height="86" as="geometry" />
        </mxCell>
        <mxCell id="L6r7v4rmBGlz0XZG1nLP-13" value="+ field: type" style="text;strokeColor=none;fillColor=none;align=left;verticalAlign=top;spacingLeft=4;spacingRight=4;overflow=hidden;rotatable=0;points=[[0,0.5],[1,0.5]];portConstraint=eastwest;" parent="L6r7v4rmBGlz0XZG1nLP-12" vertex="1">
          <mxGeometry y="26" width="160" height="26" as="geometry" />
        </mxCell>
        <mxCell id="L6r7v4rmBGlz0XZG1nLP-14" value="" style="line;strokeWidth=1;fillColor=none;align=left;verticalAlign=middle;spacingTop=-1;spacingLeft=3;spacingRight=3;rotatable=0;labelPosition=right;points=[];portConstraint=eastwest;" parent="L6r7v4rmBGlz0XZG1nLP-12" vertex="1">
          <mxGeometry y="52" width="160" height="8" as="geometry" />
        </mxCell>
        <mxCell id="L6r7v4rmBGlz0XZG1nLP-15" value="+ method(type): type" style="text;strokeColor=none;fillColor=none;align=left;verticalAlign=top;spacingLeft=4;spacingRight=4;overflow=hidden;rotatable=0;points=[[0,0.5],[1,0.5]];portConstraint=eastwest;" parent="L6r7v4rmBGlz0XZG1nLP-12" vertex="1">
          <mxGeometry y="60" width="160" height="26" as="geometry" />
        </mxCell>
        <mxCell id="L6r7v4rmBGlz0XZG1nLP-16" value="SkeletonManager" style="swimlane;fontStyle=1;align=center;verticalAlign=top;childLayout=stackLayout;horizontal=1;startSize=26;horizontalStack=0;resizeParent=1;resizeParentMax=0;resizeLast=0;collapsible=1;marginBottom=0;" parent="1" vertex="1">
          <mxGeometry x="770" y="280" width="160" height="86" as="geometry" />
        </mxCell>
        <mxCell id="L6r7v4rmBGlz0XZG1nLP-17" value="+ field: type" style="text;strokeColor=none;fillColor=none;align=left;verticalAlign=top;spacingLeft=4;spacingRight=4;overflow=hidden;rotatable=0;points=[[0,0.5],[1,0.5]];portConstraint=eastwest;" parent="L6r7v4rmBGlz0XZG1nLP-16" vertex="1">
          <mxGeometry y="26" width="160" height="26" as="geometry" />
        </mxCell>
        <mxCell id="L6r7v4rmBGlz0XZG1nLP-18" value="" style="line;strokeWidth=1;fillColor=none;align=left;verticalAlign=middle;spacingTop=-1;spacingLeft=3;spacingRight=3;rotatable=0;labelPosition=right;points=[];portConstraint=eastwest;" parent="L6r7v4rmBGlz0XZG1nLP-16" vertex="1">
          <mxGeometry y="52" width="160" height="8" as="geometry" />
        </mxCell>
        <mxCell id="L6r7v4rmBGlz0XZG1nLP-19" value="+ method(type): type" style="text;strokeColor=none;fillColor=none;align=left;verticalAlign=top;spacingLeft=4;spacingRight=4;overflow=hidden;rotatable=0;points=[[0,0.5],[1,0.5]];portConstraint=eastwest;" parent="L6r7v4rmBGlz0XZG1nLP-16" vertex="1">
          <mxGeometry y="60" width="160" height="26" as="geometry" />
        </mxCell>
        <mxCell id="L6r7v4rmBGlz0XZG1nLP-20" value="1" style="endArrow=open;html=1;endSize=12;startArrow=diamondThin;startSize=14;startFill=1;edgeStyle=orthogonalEdgeStyle;align=left;verticalAlign=bottom;exitX=1;exitY=0.5;exitDx=0;exitDy=0;entryX=0.006;entryY=0.174;entryDx=0;entryDy=0;entryPerimeter=0;" parent="1" source="zWcjs0OMuB9KEEBCAnvX-12" target="L6r7v4rmBGlz0XZG1nLP-16" edge="1">
          <mxGeometry x="-1" y="3" relative="1" as="geometry">
            <mxPoint x="340" y="263" as="sourcePoint" />
            <mxPoint x="710" y="213" as="targetPoint" />
          </mxGeometry>
        </mxCell>
        <mxCell id="L6r7v4rmBGlz0XZG1nLP-21" value="ResourceGroupManager" style="swimlane;fontStyle=1;align=center;verticalAlign=top;childLayout=stackLayout;horizontal=1;startSize=26;horizontalStack=0;resizeParent=1;resizeParentMax=0;resizeLast=0;collapsible=1;marginBottom=0;" parent="1" vertex="1">
          <mxGeometry x="560" y="500" width="200" height="86" as="geometry" />
        </mxCell>
        <mxCell id="L6r7v4rmBGlz0XZG1nLP-22" value="+ field: type" style="text;strokeColor=none;fillColor=none;align=left;verticalAlign=top;spacingLeft=4;spacingRight=4;overflow=hidden;rotatable=0;points=[[0,0.5],[1,0.5]];portConstraint=eastwest;" parent="L6r7v4rmBGlz0XZG1nLP-21" vertex="1">
          <mxGeometry y="26" width="200" height="26" as="geometry" />
        </mxCell>
        <mxCell id="L6r7v4rmBGlz0XZG1nLP-23" value="" style="line;strokeWidth=1;fillColor=none;align=left;verticalAlign=middle;spacingTop=-1;spacingLeft=3;spacingRight=3;rotatable=0;labelPosition=right;points=[];portConstraint=eastwest;" parent="L6r7v4rmBGlz0XZG1nLP-21" vertex="1">
          <mxGeometry y="52" width="200" height="8" as="geometry" />
        </mxCell>
        <mxCell id="L6r7v4rmBGlz0XZG1nLP-24" value="+ method(type): type" style="text;strokeColor=none;fillColor=none;align=left;verticalAlign=top;spacingLeft=4;spacingRight=4;overflow=hidden;rotatable=0;points=[[0,0.5],[1,0.5]];portConstraint=eastwest;" parent="L6r7v4rmBGlz0XZG1nLP-21" vertex="1">
          <mxGeometry y="60" width="200" height="26" as="geometry" />
        </mxCell>
        <mxCell id="L6r7v4rmBGlz0XZG1nLP-26" value="1" style="endArrow=open;html=1;endSize=12;startArrow=diamondThin;startSize=14;startFill=1;edgeStyle=orthogonalEdgeStyle;align=left;verticalAlign=bottom;entryX=0;entryY=0.25;entryDx=0;entryDy=0;" parent="1" source="zWcjs0OMuB9KEEBCAnvX-8" target="L6r7v4rmBGlz0XZG1nLP-21" edge="1">
          <mxGeometry x="-1" y="3" relative="1" as="geometry">
            <mxPoint x="333" y="325" as="sourcePoint" />
            <mxPoint x="490" y="550" as="targetPoint" />
          </mxGeometry>
        </mxCell>
        <mxCell id="L6r7v4rmBGlz0XZG1nLP-27" value="SceneManager" style="swimlane;fontStyle=1;align=center;verticalAlign=top;childLayout=stackLayout;horizontal=1;startSize=26;horizontalStack=0;resizeParent=1;resizeParentMax=0;resizeLast=0;collapsible=1;marginBottom=0;" parent="1" vertex="1">
          <mxGeometry x="530" y="620" width="200" height="86" as="geometry" />
        </mxCell>
        <mxCell id="L6r7v4rmBGlz0XZG1nLP-28" value="+ field: type" style="text;strokeColor=none;fillColor=none;align=left;verticalAlign=top;spacingLeft=4;spacingRight=4;overflow=hidden;rotatable=0;points=[[0,0.5],[1,0.5]];portConstraint=eastwest;" parent="L6r7v4rmBGlz0XZG1nLP-27" vertex="1">
          <mxGeometry y="26" width="200" height="26" as="geometry" />
        </mxCell>
        <mxCell id="L6r7v4rmBGlz0XZG1nLP-29" value="" style="line;strokeWidth=1;fillColor=none;align=left;verticalAlign=middle;spacingTop=-1;spacingLeft=3;spacingRight=3;rotatable=0;labelPosition=right;points=[];portConstraint=eastwest;" parent="L6r7v4rmBGlz0XZG1nLP-27" vertex="1">
          <mxGeometry y="52" width="200" height="8" as="geometry" />
        </mxCell>
        <mxCell id="L6r7v4rmBGlz0XZG1nLP-30" value="+ method(type): type" style="text;strokeColor=none;fillColor=none;align=left;verticalAlign=top;spacingLeft=4;spacingRight=4;overflow=hidden;rotatable=0;points=[[0,0.5],[1,0.5]];portConstraint=eastwest;" parent="L6r7v4rmBGlz0XZG1nLP-27" vertex="1">
          <mxGeometry y="60" width="200" height="26" as="geometry" />
        </mxCell>
        <mxCell id="L6r7v4rmBGlz0XZG1nLP-31" value="*" style="endArrow=open;html=1;endSize=12;startArrow=diamondThin;startSize=14;startFill=1;edgeStyle=orthogonalEdgeStyle;align=left;verticalAlign=bottom;entryX=-0.005;entryY=0.186;entryDx=0;entryDy=0;exitX=1;exitY=0.5;exitDx=0;exitDy=0;entryPerimeter=0;" parent="1" source="zWcjs0OMuB9KEEBCAnvX-10" target="L6r7v4rmBGlz0XZG1nLP-27" edge="1">
          <mxGeometry x="-1" y="3" relative="1" as="geometry">
            <mxPoint x="340" y="341" as="sourcePoint" />
            <mxPoint x="570" y="531.5" as="targetPoint" />
          </mxGeometry>
        </mxCell>
        <mxCell id="jB5qyqG0pWGTz93OIbAg-5" value="MovableObject" style="swimlane;fontStyle=1;align=center;verticalAlign=top;childLayout=stackLayout;horizontal=1;startSize=26;horizontalStack=0;resizeParent=1;resizeParentMax=0;resizeLast=0;collapsible=1;marginBottom=0;fillColor=#ffffff;" vertex="1" parent="1">
          <mxGeometry x="970" y="80" width="160" height="86" as="geometry" />
        </mxCell>
        <mxCell id="jB5qyqG0pWGTz93OIbAg-6" value="+ field: type" style="text;strokeColor=none;fillColor=none;align=left;verticalAlign=top;spacingLeft=4;spacingRight=4;overflow=hidden;rotatable=0;points=[[0,0.5],[1,0.5]];portConstraint=eastwest;" vertex="1" parent="jB5qyqG0pWGTz93OIbAg-5">
          <mxGeometry y="26" width="160" height="26" as="geometry" />
        </mxCell>
        <mxCell id="jB5qyqG0pWGTz93OIbAg-7" value="" style="line;strokeWidth=1;fillColor=none;align=left;verticalAlign=middle;spacingTop=-1;spacingLeft=3;spacingRight=3;rotatable=0;labelPosition=right;points=[];portConstraint=eastwest;" vertex="1" parent="jB5qyqG0pWGTz93OIbAg-5">
          <mxGeometry y="52" width="160" height="8" as="geometry" />
        </mxCell>
        <mxCell id="jB5qyqG0pWGTz93OIbAg-8" value="+ method(type): type" style="text;strokeColor=none;fillColor=none;align=left;verticalAlign=top;spacingLeft=4;spacingRight=4;overflow=hidden;rotatable=0;points=[[0,0.5],[1,0.5]];portConstraint=eastwest;" vertex="1" parent="jB5qyqG0pWGTz93OIbAg-5">
          <mxGeometry y="60" width="160" height="26" as="geometry" />
        </mxCell>
        <mxCell id="jB5qyqG0pWGTz93OIbAg-9" value="TextureManager" style="swimlane;fontStyle=1;align=center;verticalAlign=top;childLayout=stackLayout;horizontal=1;startSize=26;horizontalStack=0;resizeParent=1;resizeParentMax=0;resizeLast=0;collapsible=1;marginBottom=0;" vertex="1" parent="1">
          <mxGeometry x="490" y="730" width="200" height="86" as="geometry" />
        </mxCell>
        <mxCell id="jB5qyqG0pWGTz93OIbAg-10" value="+ field: type" style="text;strokeColor=none;fillColor=none;align=left;verticalAlign=top;spacingLeft=4;spacingRight=4;overflow=hidden;rotatable=0;points=[[0,0.5],[1,0.5]];portConstraint=eastwest;" vertex="1" parent="jB5qyqG0pWGTz93OIbAg-9">
          <mxGeometry y="26" width="200" height="26" as="geometry" />
        </mxCell>
        <mxCell id="jB5qyqG0pWGTz93OIbAg-11" value="" style="line;strokeWidth=1;fillColor=none;align=left;verticalAlign=middle;spacingTop=-1;spacingLeft=3;spacingRight=3;rotatable=0;labelPosition=right;points=[];portConstraint=eastwest;" vertex="1" parent="jB5qyqG0pWGTz93OIbAg-9">
          <mxGeometry y="52" width="200" height="8" as="geometry" />
        </mxCell>
        <mxCell id="jB5qyqG0pWGTz93OIbAg-12" value="+ method(type): type" style="text;strokeColor=none;fillColor=none;align=left;verticalAlign=top;spacingLeft=4;spacingRight=4;overflow=hidden;rotatable=0;points=[[0,0.5],[1,0.5]];portConstraint=eastwest;" vertex="1" parent="jB5qyqG0pWGTz93OIbAg-9">
          <mxGeometry y="60" width="200" height="26" as="geometry" />
        </mxCell>
        <mxCell id="jB5qyqG0pWGTz93OIbAg-15" value="" style="endArrow=open;html=1;endSize=12;startArrow=diamondThin;startSize=14;startFill=0;edgeStyle=orthogonalEdgeStyle;exitX=1;exitY=0.5;exitDx=0;exitDy=0;entryX=0;entryY=0.25;entryDx=0;entryDy=0;" edge="1" parent="1" source="zWcjs0OMuB9KEEBCAnvX-4" target="jB5qyqG0pWGTz93OIbAg-9">
          <mxGeometry relative="1" as="geometry">
            <mxPoint x="180" y="590" as="sourcePoint" />
            <mxPoint x="340" y="590" as="targetPoint" />
          </mxGeometry>
        </mxCell>
        <mxCell id="jB5qyqG0pWGTz93OIbAg-16" value="0..n" style="edgeLabel;resizable=0;html=1;align=left;verticalAlign=top;" connectable="0" vertex="1" parent="jB5qyqG0pWGTz93OIbAg-15">
          <mxGeometry x="-1" relative="1" as="geometry" />
        </mxCell>
        <mxCell id="jB5qyqG0pWGTz93OIbAg-17" value="1" style="edgeLabel;resizable=0;html=1;align=right;verticalAlign=top;" connectable="0" vertex="1" parent="jB5qyqG0pWGTz93OIbAg-15">
          <mxGeometry x="1" relative="1" as="geometry" />
        </mxCell>
        <mxCell id="jB5qyqG0pWGTz93OIbAg-35" value="RTShader::ShaderGenerator" style="swimlane;fontStyle=1;align=center;verticalAlign=top;childLayout=stackLayout;horizontal=1;startSize=26;horizontalStack=0;resizeParent=1;resizeParentMax=0;resizeLast=0;collapsible=1;marginBottom=0;fillColor=#ffffff;" vertex="1" parent="1">
          <mxGeometry x="40" y="480" width="340" height="86" as="geometry" />
        </mxCell>
        <mxCell id="jB5qyqG0pWGTz93OIbAg-36" value="+ mSceneManagerMap: std::map&lt;String, SceneManager*&gt;  " style="text;strokeColor=none;fillColor=none;align=left;verticalAlign=top;spacingLeft=4;spacingRight=4;overflow=hidden;rotatable=0;points=[[0,0.5],[1,0.5]];portConstraint=eastwest;" vertex="1" parent="jB5qyqG0pWGTz93OIbAg-35">
          <mxGeometry y="26" width="340" height="26" as="geometry" />
        </mxCell>
        <mxCell id="jB5qyqG0pWGTz93OIbAg-37" value="" style="line;strokeWidth=1;fillColor=none;align=left;verticalAlign=middle;spacingTop=-1;spacingLeft=3;spacingRight=3;rotatable=0;labelPosition=right;points=[];portConstraint=eastwest;" vertex="1" parent="jB5qyqG0pWGTz93OIbAg-35">
          <mxGeometry y="52" width="340" height="8" as="geometry" />
        </mxCell>
        <mxCell id="jB5qyqG0pWGTz93OIbAg-38" value="+ method(type): type" style="text;strokeColor=none;fillColor=none;align=left;verticalAlign=top;spacingLeft=4;spacingRight=4;overflow=hidden;rotatable=0;points=[[0,0.5],[1,0.5]];portConstraint=eastwest;" vertex="1" parent="jB5qyqG0pWGTz93OIbAg-35">
          <mxGeometry y="60" width="340" height="26" as="geometry" />
        </mxCell>
        <mxCell id="jB5qyqG0pWGTz93OIbAg-59" value="Application" style="shape=umlLifeline;perimeter=lifelinePerimeter;whiteSpace=wrap;html=1;container=1;collapsible=0;recursiveResize=0;outlineConnect=0;fontSize=20;fillColor=#ffffff;align=center;" vertex="1" parent="1">
          <mxGeometry x="60" y="-1118.5" width="150" height="568.5" as="geometry" />
        </mxCell>
        <mxCell id="jB5qyqG0pWGTz93OIbAg-61" value="" style="html=1;points=[];perimeter=orthogonalPerimeter;fontSize=12;fillColor=#ffffff;align=center;" vertex="1" parent="jB5qyqG0pWGTz93OIbAg-59">
          <mxGeometry x="69" y="62.5" width="10" height="337.5" as="geometry" />
        </mxCell>
        <mxCell id="jB5qyqG0pWGTz93OIbAg-62" value="main&#xa;Root::Root()&#xa;&#xa;&#xa;&#xa;ApplicationContextBase::createWindow&#xa;ApplicationContextBase::loadResources&#xa;Root::addFrameListener&#xa;ApplicationContextBase::addInputListener&#xa;&#xa;Root::createSceneManager&#xa;SceneManager::createCamera&#xa;SceneManager::getRootSceneNode()-&gt;attachObject(camera)&#xa;Window::RenderWindow::addViewPort      // Create Viewport obj&#xa;RTShader::ShaderGenerator::addSceneManager" style="text;align=left;fontStyle=0;verticalAlign=middle;spacingLeft=3;spacingRight=3;rotatable=0;points=[[0,0.5],[1,0.5]];portConstraint=eastwest;fontSize=12;fillColor=none;" vertex="1" parent="1">
          <mxGeometry x="139" y="-1065" width="350" height="230" as="geometry" />
        </mxCell>
        <mxCell id="jB5qyqG0pWGTz93OIbAg-63" value="Ogre::FrameListener" style="shape=umlLifeline;perimeter=lifelinePerimeter;whiteSpace=wrap;html=1;container=1;collapsible=0;recursiveResize=0;outlineConnect=0;fontSize=20;fillColor=#ffffff;align=center;" vertex="1" parent="1">
          <mxGeometry x="404" y="-1118.5" width="226" height="438.5" as="geometry" />
        </mxCell>
        <mxCell id="jB5qyqG0pWGTz93OIbAg-65" value="Ogre::Root" style="shape=umlLifeline;perimeter=lifelinePerimeter;whiteSpace=wrap;html=1;container=1;collapsible=0;recursiveResize=0;outlineConnect=0;fontSize=20;fillColor=#ffffff;align=center;" vertex="1" parent="1">
          <mxGeometry x="670" y="-1120" width="140" height="570" as="geometry" />
        </mxCell>
        <mxCell id="jB5qyqG0pWGTz93OIbAg-64" value="" style="html=1;points=[];perimeter=orthogonalPerimeter;fontSize=12;fillColor=#ffffff;align=center;" vertex="1" parent="1">
          <mxGeometry x="512" y="-798.5" width="10" height="194" as="geometry" />
        </mxCell>
        <mxCell id="jB5qyqG0pWGTz93OIbAg-68" value="&lt;span style=&quot;font-family: &amp;#34;menlo&amp;#34; ; font-size: 11px&quot;&gt;Root::startRendering&lt;/span&gt;" style="endArrow=block;endFill=1;html=1;edgeStyle=orthogonalEdgeStyle;align=left;verticalAlign=top;fontSize=12;fontColor=#000000;exitX=1.1;exitY=0.729;exitDx=0;exitDy=0;exitPerimeter=0;entryX=0.1;entryY=0.44;entryDx=0;entryDy=0;entryPerimeter=0;" edge="1" parent="1" source="jB5qyqG0pWGTz93OIbAg-61" target="jB5qyqG0pWGTz93OIbAg-75">
          <mxGeometry x="-1" relative="1" as="geometry">
            <mxPoint x="150" y="-820" as="sourcePoint" />
            <mxPoint x="741" y="-828.04" as="targetPoint" />
          </mxGeometry>
        </mxCell>
        <mxCell id="jB5qyqG0pWGTz93OIbAg-69" value="1" style="edgeLabel;resizable=0;html=1;align=left;verticalAlign=bottom;" connectable="0" vertex="1" parent="jB5qyqG0pWGTz93OIbAg-68">
          <mxGeometry x="-1" relative="1" as="geometry" />
        </mxCell>
        <mxCell id="jB5qyqG0pWGTz93OIbAg-70" value="一、UI 总逻辑" style="text;align=center;fontStyle=1;verticalAlign=middle;spacingLeft=3;spacingRight=3;strokeColor=none;rotatable=0;points=[[0,0.5],[1,0.5]];portConstraint=eastwest;fontSize=20;fontColor=#000000;fillColor=#ffffff;" vertex="1" parent="1">
          <mxGeometry x="20" y="-1160" width="160" height="30" as="geometry" />
        </mxCell>
        <mxCell id="jB5qyqG0pWGTz93OIbAg-73" value="&lt;span style=&quot;background-color: rgb(248 , 249 , 250)&quot;&gt;&amp;nbsp; loadPlugin，add renderSystem&lt;br&gt;&lt;/span&gt;" style="endArrow=block;endFill=1;html=1;edgeStyle=orthogonalEdgeStyle;align=left;verticalAlign=top;fontSize=12;fontColor=#000000;exitX=0.9;exitY=0.092;exitDx=0;exitDy=0;exitPerimeter=0;entryX=0.2;entryY=-0.001;entryDx=0;entryDy=0;entryPerimeter=0;" edge="1" parent="1" source="jB5qyqG0pWGTz93OIbAg-61" target="jB5qyqG0pWGTz93OIbAg-75">
          <mxGeometry x="-1" relative="1" as="geometry">
            <mxPoint x="136" y="-1017" as="sourcePoint" />
            <mxPoint x="760" y="-1012" as="targetPoint" />
            <Array as="points">
              <mxPoint x="138" y="-1022" />
            </Array>
          </mxGeometry>
        </mxCell>
        <mxCell id="jB5qyqG0pWGTz93OIbAg-75" value="" style="html=1;points=[];perimeter=orthogonalPerimeter;fontSize=12;fillColor=#ffffff;align=center;" vertex="1" parent="1">
          <mxGeometry x="740" y="-1021.75" width="10" height="481.75" as="geometry" />
        </mxCell>
        <mxCell id="jB5qyqG0pWGTz93OIbAg-76" value="setRenderSystem：OpenGL 30" style="text;align=left;fontStyle=0;verticalAlign=middle;spacingLeft=3;spacingRight=3;rotatable=0;points=[[0,0.5],[1,0.5]];portConstraint=eastwest;fontSize=12;fillColor=none;" vertex="1" parent="1">
          <mxGeometry x="751" y="-1021.75" width="190" height="31.75" as="geometry" />
        </mxCell>
        <mxCell id="jB5qyqG0pWGTz93OIbAg-77" value="renderSystem" style="text;align=left;fontStyle=0;verticalAlign=middle;spacingLeft=3;spacingRight=3;rotatable=0;points=[[0,0.5],[1,0.5]];portConstraint=eastwest;fontSize=12;fillColor=none;" vertex="1" parent="1">
          <mxGeometry x="750" y="-810" width="190" height="31.75" as="geometry" />
        </mxCell>
      </root>
    </mxGraphModel>
  </diagram>
</mxfile>
